<svg width="33" height="35" viewBox="0 0 33 35" fill="none" xmlns="http://www.w3.org/2000/svg">
<path d="M12.7793 14.959L14.0273 13.5527H15.8906L18.1055 2.35547C15.7031 2.35547 13.752 3.00586 12.252 4.30664C10.7637 5.5957 10.0195 7.2832 10.0195 9.36914L10.0371 9.75586L6.60938 11.4082C6.91406 7.81055 8.30859 5.17383 10.793 3.49805C13.2891 1.82227 17.0508 0.984375 22.0781 0.984375H32.2207L30.6387 5.95898H29.5137C29.666 5.49023 29.7422 5.02734 29.7422 4.57031C29.7422 3.04687 27.3457 2.28516 22.5527 2.28516H21.7969L19.5645 13.5527H27.2285L25.4883 15.3457C23.6133 15.0879 21.832 14.959 20.1445 14.959H19.2832L18.2637 20.1094C17.4082 24.4453 15.75 27.9082 13.2891 30.498C10.8398 33.0879 7.98633 34.3828 4.72852 34.3828C2.9707 34.3828 1.40039 33.7207 0.0175781 32.3965L2.60156 29.7598C3.52734 31.6816 5.01562 32.6426 7.06641 32.6426C8.94141 32.6426 10.4121 31.793 11.4785 30.0938C12.5566 28.4062 13.5234 25.4121 14.3789 21.1113L15.6094 14.959H12.7793Z" fill="black"/>
</svg>
